<svg viewBox="0 0 11 14" fill="currentColor" width="11" height="14"><g id="Page-1" stroke="none" fill="none" stroke-width="1" fill-rule="evenodd"><g id="Group" fill="currentColor"><path d="M0,12.7905281 C0,13.348044 0.444836974,13.8 0.995577499,13.8 L10.0044225,13.8 C10.5542648,13.8 11,13.3515084 11,12.7905281 L11,6.00947189 C11,5.45195596 10.555163,5 10.0044225,5 L0.995577499,5 C0.445735229,5 0,5.44849157 0,6.00947189 L0,12.7905281 Z" id="Stroke-1"></path><path d="M9.5,5 L9.5,4.07597662 C9.5,2.08610548 7.69574843,0.5 5.5,0.5 C3.30425157,0.5 1.5,2.08610548 1.5,4.07597662 L1.5,5 L2.5,5 L2.5,4.07597662 C2.5,2.66911962 3.82991528,1.5 5.5,1.5 C7.17008472,1.5 8.5,2.66911962 8.5,4.07597662 L8.5,5 L9.5,5 Z" id="Stroke-3" fill-rule="nonzero"></path></g></g></svg>